<svg width="1280" height="1920" viewBox="0 0 1280 1920" fill="none" xmlns="http://www.w3.org/2000/svg">
<rect width="1280" height="1920" fill="#F9FAFB"/>
<path d="M1050.94 1167.48L824.841 953.693C816.302 946.139 807.107 940.392 797.256 936.452C787.404 932.511 777.552 930.54 767.7 930.54C757.192 930.54 747.176 932.346 737.653 935.959C728.129 939.572 718.934 945.318 710.068 953.199L536.677 1108.36L465.745 1044.82C457.864 1037.92 449.489 1032.59 440.622 1028.81C431.756 1025.03 422.726 1023.15 413.531 1023.15C405.321 1023.15 397.029 1024.95 388.655 1028.57C380.281 1032.18 372.153 1037.43 364.272 1044.33L216.496 1176.83C216.824 1213.29 224.624 1241.03 239.894 1260.08C255.164 1279.13 277.577 1288.65 307.132 1288.65H941.091C976.886 1288.65 1004.14 1278.64 1022.86 1258.6C1041.58 1238.57 1050.94 1208.2 1050.94 1167.48ZM472.641 962.559C497.599 962.559 518.944 953.61 536.677 935.712C554.41 917.815 563.277 896.388 563.277 871.431C563.277 846.472 554.41 825.045 536.677 807.148C518.944 789.251 497.599 780.302 472.641 780.302C447.683 780.302 426.256 789.251 408.358 807.148C390.461 825.045 381.513 846.472 381.513 871.431C381.513 896.388 390.461 917.815 408.358 935.712C426.256 953.61 447.683 962.559 472.641 962.559ZM308.61 1319.19H971.138C1013.5 1319.19 1045.03 1308.85 1065.72 1288.16C1086.41 1267.47 1096.75 1236.44 1096.75 1195.06V725.132C1096.75 683.755 1086.41 652.722 1065.72 632.033C1045.03 611.344 1013.5 601 971.138 601H308.61C266.904 601 235.542 611.344 214.525 632.033C193.508 652.722 183 683.755 183 725.132V1195.06C183 1236.44 193.508 1267.47 214.525 1288.16C235.542 1308.85 266.904 1319.19 308.61 1319.19ZM309.595 1247.77C291.862 1247.77 278.151 1243 268.464 1233.48C258.776 1223.96 253.933 1210 253.933 1191.61V728.58C253.933 709.862 258.776 695.823 268.464 686.464C278.151 677.105 291.862 672.425 309.595 672.425H970.154C987.887 672.425 1001.6 677.105 1011.28 686.464C1020.97 695.823 1025.82 709.862 1025.82 728.58V1191.61C1025.82 1210 1020.97 1223.96 1011.28 1233.48C1001.6 1243 987.887 1247.77 970.154 1247.77H309.595Z" fill="#EEF3F6"/>
</svg>
